<?xml version="1.0" encoding="utf-8"?>
<svg viewBox="8.471 2.062 484.443 419.708" xmlns="http://www.w3.org/2000/svg">
  <g transform="matrix(0.05751, 0, 0, -0.055283, 82.178659, 455.091163)" fill="#000000" stroke="none" style="">
    <path d="M 7663.436 3553.525 L 8124.482 4237.099 L -294.611 4240.786 C -294.611 4240.786 296.049 3211.444 721.022 2427.941 C 1685.383 657.168 1821.593 502.188 2279.254 671.517 C 2469.946 740.395 3921.937 2330.361 3921.937 2468.121 C 3921.937 2648.929 3758.486 2554.218 3543.276 2247.131 C 3229.995 1802.287 2965.749 1598.518 2821.368 1693.227 C 2723.295 1756.366 2690.607 1744.888 2538.052 1589.908 C 2167.562 1211.071 2118.527 1251.25 1418.413 2531.26 L 884.472 3507.05 L 7663.436 3553.525 Z" style="" transform="matrix(-1, 0, 0, -1, 6847.363098, 4843.522705)"/>
    <path d="M -3874.154 8056.743 L -3506.56 7365.183 L 3235.49 7397.416 L 268.701 1794.106 C 268.701 1794.106 -36.605 2386.293 -216.402 2719.208 C -682.238 3568.72 -684.961 3577.331 -518.787 3872.938 C -317.197 4234.554 -390.75 4403.882 -627.753 4128.366 C -733.996 4004.956 -872.931 3973.386 -872.931 4073.835 C -872.931 4225.945 -679.513 4489.982 -328.094 4820.028 C -118.331 5018.058 53.292 5213.215 53.292 5256.265 C 53.292 5405.505 -118.331 5330.885 -322.645 5089.806 C -437.061 4954.919 -679.513 4667.921 -864.757 4452.672 C -1480.422 3732.309 -1461.354 3606.029 -488.821 1843.867 C -131.953 1198.123 287.338 513.184 287.338 513.184 L 4478.305 8103.869 L -3874.154 8056.743 Z" style="" transform="matrix(-1, 0, 0, -1, 3196.653564, 8707.908081)"/>
    <path d="M 2389.915 1815.506 C 2313.638 1735.146 2302.741 1539.988 2373.57 1539.988 C 2507.056 1539.988 2596.953 1623.216 2596.953 1746.626 C 2596.953 1892.994 2496.159 1927.434 2389.915 1815.506 Z" style="" transform="matrix(-1, 0, 0, -1, 4923.059326, 3421.755859)"/>
    <path d="M 3212.145 4148.642 C 3193.077 4099.851 3193.077 4045.322 3212.145 4028.103 C 3266.629 3967.834 3411.011 4056.802 3411.011 4148.642 C 3411.011 4263.439 3253.009 4263.439 3212.145 4148.642 Z" style="" transform="matrix(-1, 0, 0, -1, 6608.85498, 8243.157715)"/>
    <path d="M 2688.321 3283.255 C 2677.419 3319.052 2681.922 3370.008 2692.807 3382.634 C 2723.932 3426.861 2770.828 3400.415 2770.828 3333.017 C 2770.828 3248.796 2711.656 3199.015 2688.321 3283.255 Z" style="" transform="matrix(-1, 0, 0, -1, 5452.883301, 6644.140137)"/>
  </g>
</svg>